<svg xmlns="http://www.w3.org/2000/svg" width="800" height="600" viewBox="0 0 800 600">
  <!-- Background -->
  <rect width="800" height="600" fill="#F9FAFB" />
  
  <!-- Grid Pattern -->
  <g stroke="#E5E7EB" stroke-width="1">
    <!-- Horizontal Lines -->
    <line x1="0" y1="50" x2="800" y2="50" />
    <line x1="0" y1="100" x2="800" y2="100" />
    <line x1="0" y1="150" x2="800" y2="150" />
    <line x1="0" y1="200" x2="800" y2="200" />
    <line x1="0" y1="250" x2="800" y2="250" />
    <line x1="0" y1="300" x2="800" y2="300" />
    <line x1="0" y1="350" x2="800" y2="350" />
    <line x1="0" y1="400" x2="800" y2="400" />
    <line x1="0" y1="450" x2="800" y2="450" />
    <line x1="0" y1="500" x2="800" y2="500" />
    <line x1="0" y1="550" x2="800" y2="550" />
    
    <!-- Vertical Lines -->
    <line x1="50" y1="0" x2="50" y2="600" />
    <line x1="100" y1="0" x2="100" y2="600" />
    <line x1="150" y1="0" x2="150" y2="600" />
    <line x1="200" y1="0" x2="200" y2="600" />
    <line x1="250" y1="0" x2="250" y2="600" />
    <line x1="300" y1="0" x2="300" y2="600" />
    <line x1="350" y1="0" x2="350" y2="600" />
    <line x1="400" y1="0" x2="400" y2="600" />
    <line x1="450" y1="0" x2="450" y2="600" />
    <line x1="500" y1="0" x2="500" y2="600" />
    <line x1="550" y1="0" x2="550" y2="600" />
    <line x1="600" y1="0" x2="600" y2="600" />
    <line x1="650" y1="0" x2="650" y2="600" />
    <line x1="700" y1="0" x2="700" y2="600" />
    <line x1="750" y1="0" x2="750" y2="600" />
  </g>
  
  <!-- Abstract Map Elements -->
  <g opacity="0.1">
    <!-- Landmass Shape -->
    <path d="M100,100 C150,80 200,150 250,120 C300,90 350,200 400,180 C450,160 500,220 550,200 C600,180 650,250 700,230 L700,400 C650,420 600,350 550,370 C500,390 450,330 400,350 C350,370 300,300 250,320 C200,340 150,280 100,300 Z" fill="#3B82F6" />
    
    <!-- Roads -->
    <path d="M200,100 L600,500" stroke="#6B7280" stroke-width="3" />
    <path d="M100,300 L700,300" stroke="#6B7280" stroke-width="3" />
    <path d="M400,100 L400,500" stroke="#6B7280" stroke-width="3" />
  </g>
</svg>